Coordinates
version=1
nRows=32
nColumns=22
inDegrees=yes

Units are S.I. units (second, meters, Newtons, ...)
If the header above contains a line with 'inDegrees', this indicates whether rotational values are in degrees (yes) or radians (no).

endheader
time	pelvis_tilt	pelvis_list	pelvis_rotation	pelvis_tx	pelvis_ty	pelvis_tz	hip_flexion_r	hip_adduction_r	hip_rotation_r	knee_angle_r	ankle_angle_r	subtalar_angle_r	hip_flexion_l	hip_adduction_l	hip_rotation_l	knee_angle_l	ankle_angle_l	subtalar_angle_l	lumbar_extension	lumbar_bending	lumbar_rotation
      0.01000000	     -1.33400383	     -4.76685983	      1.39379501	      0.11567647	      1.02111420	      1.36175749	      0.74642524	      2.11365694	     -5.69312722	    -11.39897787	      9.50526511	      3.38076185	     -2.40476190	     -7.39320532	    -10.74662822	     -7.16087278	     10.58302048	     -1.72417302	     -1.22085590	      1.25146203	     -2.53343909
      0.02000000	     -1.32193111	     -4.75564601	      1.34438114	      0.11568373	      1.02111552	      1.36190999	      0.82669642	      2.10132847	     -5.65879509	    -11.57001367	      9.54235432	      3.36790308	     -2.43036745	     -7.38664029	    -10.77991920	     -7.16155294	     10.58928081	     -1.71604710	     -1.23621438	      1.24610691	     -2.52626329
      0.03000000	     -1.34413833	     -4.72025476	      1.26848063	      0.11570638	      1.02105897	      1.36210728	      0.96409118	      2.06338432	     -5.57858641	    -11.78230891	      9.62438661	      3.33214059	     -2.42646198	     -7.35241848	    -10.85891101	     -7.15939625	     10.59564495	     -1.69108470	     -1.20881028	      1.21867054	     -2.52481523
      0.04000000	     -1.35787491	     -4.69178839	      1.19991598	      0.11572860	      1.02100738	      1.36232776	      1.11035290	      2.03486141	     -5.51500346	    -12.02638191	      9.69573173	      3.28900355	     -2.43253332	     -7.32769398	    -10.91683560	     -7.15380346	     10.60110484	     -1.66574985	     -1.19312710	      1.19634202	     -2.52956089
      0.05000000	     -1.34714952	     -4.67336884	      1.14276926	      0.11575705	      1.02098468	      1.36254591	      1.24018738	      2.01812526	     -5.47032375	    -12.28775399	      9.75005786	      3.25324546	     -2.46718606	     -7.31410288	    -10.94681800	     -7.14193194	     10.60232398	     -1.65021517	     -1.20807162	      1.18798927	     -2.53684569
      0.06000000	     -1.38313897	     -4.61429911	      1.06649119	      0.11579783	      1.02088643	      1.36281917	      1.42762899	      1.96115221	     -5.37685569	    -12.56768692	      9.84540727	      3.17097823	     -2.45471620	     -7.25700016	    -11.03013609	     -7.13021147	     10.59654164	     -1.61679854	     -1.16636183	      1.12937806	     -2.56066938
      0.07000000	     -1.38026106	     -4.57385120	      1.01590984	      0.11587986	      1.02082921	      1.36306329	      1.56761532	      1.92450303	     -5.32756660	    -12.84204492	      9.94539939	      3.10952092	     -2.49435951	     -7.21909496	    -11.08731159	     -7.09253925	     10.59923000	     -1.60194243	     -1.16804091	      1.09520292	     -2.59609730
      0.08000000	     -1.37877907	     -4.52602790	      0.96717782	      0.11596439	      1.02076613	      1.36331884	      1.70757456	      1.88148364	     -5.27653880	    -13.11368424	     10.03645910	      3.04355005	     -2.53068643	     -7.17383743	    -11.13251303	     -7.05953017	     10.59084475	     -1.58686833	     -1.17015236	      1.05253796	     -2.64240474
      0.09000000	     -1.36047545	     -4.49599034	      0.93926098	      0.11605569	      1.02072146	      1.36356403	      1.82167969	      1.85882844	     -5.24681418	    -13.37285348	     10.11140571	      2.99612355	     -2.58156771	     -7.14966078	    -11.15325341	     -7.02607028	     10.58578452	     -1.57739780	     -1.19562478	      1.02883568	     -2.69307296
      0.10000000	     -1.34849621	     -4.44799821	      0.91967537	      0.11616124	      1.02065930	      1.36380801	      1.93277456	      1.81747052	     -5.21640974	    -13.61862257	     10.21081946	      2.93863641	     -2.62744727	     -7.10640843	    -11.18205016	     -6.98523623	     10.57720389	     -1.56675136	     -1.21403380	      0.98439087	     -2.76547403
      0.11000000	     -1.34605060	     -4.38760552	      0.91696789	      0.11629895	      1.02058084	      1.36401814	      2.03548788	      1.76179668	     -5.19416224	    -13.83698929	     10.31091313	      2.87164490	     -2.66313145	     -7.04862601	    -11.20572675	     -6.93940549	     10.56425298	     -1.55262013	     -1.21944580	      0.92933132	     -2.85685093
      0.12000000	     -1.32473609	     -4.36055731	      0.92081056	      0.11642714	      1.02052638	      1.36426059	      2.11500165	      1.74379899	     -5.19427416	    -14.04654524	     10.38529719	      2.83309717	     -2.71269117	     -7.03184807	    -11.20484617	     -6.90538991	     10.55887044	     -1.54252578	     -1.25354760	      0.90789244	     -2.93539758
      0.13000000	     -1.31173027	     -4.30604779	      0.94506363	      0.11659189	      1.02045601	      1.36446776	      2.18468809	      1.69497422	     -5.20648466	    -14.23081074	     10.48192131	      2.78336930	     -2.75408321	     -6.98466141	    -11.19962564	     -6.86254959	     10.55010995	     -1.52481942	     -1.27544193	      0.85792088	     -3.04031425
      0.14000000	     -1.29200822	     -4.27017961	      0.97416337	      0.11676719	      1.02039440	      1.36469751	      2.24121020	      1.66753993	     -5.22911807	    -14.40343976	     10.56154511	      2.74869491	     -2.79868026	     -6.96135002	    -11.18360581	     -6.82849207	     10.54630483	     -1.50633745	     -1.30780725	      0.82770789	     -3.13257736
      0.15000000	     -1.26934708	     -4.24566704	      1.00725860	      0.11696032	      1.02033584	      1.36493871	      2.28751565	      1.65289864	     -5.25474074	    -14.56569541	     10.63275742	      2.72485886	     -2.84293197	     -6.95281209	    -11.16502410	     -6.80160972	     10.54654459	     -1.48966048	     -1.34678408	      0.81124586	     -3.20580823
      0.16000000	     -1.24765996	     -4.21268030	      1.04831385	      0.11719498	      1.02027530	      1.36518934	      2.32210915	      1.63053328	     -5.28838236	    -14.71013792	     10.71134374	      2.70098352	     -2.88645960	     -6.93702820	    -11.13886427	     -6.77549667	     10.54963199	     -1.46646060	     -1.38048249	      0.78472645	     -3.28605938
      0.17000000	     -1.22718121	     -4.18490405	      1.08836089	      0.11746087	      1.02021738	      1.36546487	      2.34825710	      1.61578476	     -5.32079925	    -14.83940206	     10.78247177	      2.68066516	     -2.92808892	     -6.92921240	    -11.11008250	     -6.75471327	     10.55438005	     -1.44036529	     -1.41127515	      0.76397946	     -3.35256981
      0.18000000	     -1.20917597	     -4.16009774	      1.12880805	      0.11775791	      1.02016026	      1.36575458	      2.36626527	      1.60606490	     -5.34654791	    -14.95186256	     10.84802144	      2.66209807	     -2.96659434	     -6.92612789	    -11.08196661	     -6.73843027	     10.56183980	     -1.41151547	     -1.43726043	      0.74778825	     -3.40838267
      0.19000000	     -1.19926887	     -4.14690729	      1.15621156	      0.11807780	      1.02010452	      1.36608320	      2.38179458	      1.61322608	     -5.33792510	    -15.04323214	     10.87306128	      2.65375657	     -2.99722623	     -6.93679849	    -11.07315228	     -6.72722704	     10.56722133	     -1.39956308	     -1.45172930	      0.74820372	     -3.45458835
      0.20000000	     -1.18403585	     -4.12412704	      1.19803551	      0.11841665	      1.02004836	      1.36641173	      2.38703001	      1.60908683	     -5.37367596	    -15.13248446	     10.96812873	      2.62673790	     -3.02999013	     -6.93938053	    -11.03087695	     -6.72120150	     10.58221713	     -1.35656679	     -1.47283200	      0.73325828	     -3.48082384
      0.21000000	     -1.17930723	     -4.11224927	      1.22361969	      0.11876558	      1.02000017	      1.36678733	      2.39416830	      1.62184385	     -5.36141740	    -15.20129883	     10.98997909	      2.61787096	     -3.05260367	     -6.95487638	    -11.01800645	     -6.71825065	     10.58513311	     -1.34055134	     -1.48134882	      0.73393174	     -3.50866354
      0.22000000	     -1.17520981	     -4.10506546	      1.25083025	      0.11912188	      1.01995028	      1.36718863	      2.39810555	      1.64124687	     -5.35871983	    -15.26463328	     11.04154625	      2.60108019	     -3.07404242	     -6.97748288	    -10.99168360	     -6.71745133	     10.59120037	     -1.31410535	     -1.49129575	      0.73790379	     -3.51825552
      0.23000000	     -1.17434489	     -4.09954020	      1.27637670	      0.11951414	      1.01989905	      1.36759448	      2.39408215	      1.66296118	     -5.35961843	    -15.31061205	     11.10262754	      2.57806877	     -3.09455962	     -7.00141425	    -10.96240095	     -6.71790294	     10.60045822	     -1.27372539	     -1.49337823	      0.75053753	     -3.52144505
      0.24000000	     -1.17517022	     -4.09405920	      1.30916055	      0.11994254	      1.01985233	      1.36801995	      2.37251523	      1.68696790	     -5.37295505	    -15.32337593	     11.14394363	      2.52501161	     -3.11217046	     -7.02900910	    -10.94064508	     -6.72021789	     10.63285559	     -1.13773612	     -1.49069864	      0.76248643	     -3.53140474
      0.25000000	     -1.18022811	     -4.09271738	      1.32633268	      0.12033538	      1.01980367	      1.36849856	      2.37087470	      1.71723644	     -5.36673066	    -15.36043660	     11.17054855	      2.51491049	     -3.12561990	     -7.06131215	    -10.92336067	     -6.72432184	     10.62442970	     -1.11885039	     -1.49653705	      0.77860585	     -3.51118263
      0.26000000	     -1.18977124	     -4.09931760	      1.34433551	      0.12077291	      1.01974479	      1.36899756	      2.35943741	      1.75726162	     -5.37020935	    -15.37419638	     11.21805834	      2.49601410	     -3.14062575	     -7.10318507	    -10.90790126	     -6.72067420	     10.62633290	     -1.08385141	     -1.49199890	      0.80793362	     -3.49070960
      0.27000000	     -1.19931766	     -4.10900287	      1.36456257	      0.12121524	      1.01968344	      1.36953298	      2.34638493	      1.80247093	     -5.38107756	    -15.38631547	     11.25826207	      2.47228595	     -3.15207826	     -7.15218818	    -10.89348320	     -6.72356172	     10.63409062	     -1.03181258	     -1.49229709	      0.84017879	     -3.47275821
      0.28000000	     -1.21216157	     -4.12538937	      1.39326926	      0.12165592	      1.01961884	      1.37010264	      2.32937026	      1.85816322	     -5.40086932	    -15.38134986	     11.27114022	      2.41630519	     -3.15216057	     -7.21401457	    -10.88438683	     -6.73743640	     10.67584149	     -0.87378410	     -1.49655140	      0.87755635	     -3.46671756
      0.29000000	     -1.23012163	     -4.12277216	      1.40931767	      0.12210270	      1.01954329	      1.37070578	      2.32636358	      1.89149490	     -5.42559603	    -15.39484235	     11.31503161	      2.40547728	     -3.15618863	     -7.25300990	    -10.87510241	     -6.73772928	     10.66511617	     -0.85539508	     -1.50004994	      0.89399261	     -3.42865719
      0.30000000	     -1.25493443	     -4.13558730	      1.43277775	      0.12258347	      1.01944256	      1.37133733	      2.33120768	      1.94406222	     -5.45337520	    -15.41682154	     11.38095590	      2.37453083	     -3.14931678	     -7.31328328	    -10.86508424	     -6.74682245	     10.68592868	     -0.77942910	     -1.49267631	      0.93306088	     -3.42832448
      0.31000000	     -1.29194073	     -4.13554486	      1.45949020	      0.12306663	      1.01932589	      1.37199154	      2.34693564	      1.98327604	     -5.49269829	    -15.43349225	     11.42661072	      2.33350358	     -3.11648917	     -7.36360896	    -10.84887722	     -6.78124936	     10.71869574	     -0.64837135	     -1.47607495	      0.95438257	     -3.40472031
      0.32000000	     -1.31066411	     -4.12728267	      1.47943813	      0.12355608	      1.01923464	      1.37267761	      2.35010126	      2.01512818	     -5.51702153	    -15.46440060	     11.47719651	      2.32178056	     -3.11370719	     -7.40450128	    -10.83513629	     -6.79634792	     10.70933408	     -0.62796908	     -1.49077003	      0.96642303	     -3.36677116
